# xmcd
# 
# Track frame offsets:
#     150
#     14259
#     30661
#     46506
#     65086
#     86261
#     110189
#     128678
#     146352
#     161051
#     179755
# 
# Disc length: 2602
# 
# Revision: 2
# Processed by: cddbd v1.5.2PL0 Copyright (c) Steve Scherf et al.
# Submitted via: fre:ac v1.0.27
# 
DISCID=900a280b
DTITLE=Jeff Austin and Chris Castino - Songs from the Tin Shed
DYEAR=2004
DGENRE=Bluegrass
TTITLE0=No Place Like a Road
TTITLE1=Different Day
TTITLE2=My Baby's Gone
TTITLE3=Back of My Mind
TTITLE4=Last Day Waltz
TTITLE5=Steep Grade, Sharp Curves
TTITLE6=Latent Love
TTITLE7=Flatiron Suite
TTITLE8=Sunday Afternoon
TTITLE9=Paul and Silas
TTITLE10=Lonely Yukon Stars
EXTD=
EXTT0=
EXTT1=
EXTT2=
EXTT3=
EXTT4=
EXTT5=
EXTT6=
EXTT7=
EXTT8=
EXTT9=
EXTT10=
PLAYORDER=
